<svg width="375" height="377" viewBox="0 0 375 377" fill="none" xmlns="http://www.w3.org/2000/svg">
<g clip-path="url(#clip0_8_7)">
<path d="M245.646 225.498C246.899 227.128 248.194 229.185 249.84 230.903C254.332 235.576 258.944 240.141 263.61 244.64C264.156 245.166 265.456 245.278 266.265 245.061C271.928 243.555 277.171 244.31 281.818 247.913C283.901 249.534 285.766 251.45 287.652 253.311C293.987 259.55 300.255 265.866 306.612 272.083C311.595 276.955 316.687 281.695 321.681 286.555C325.061 289.839 328.276 293.309 331.689 296.549C337.479 302.034 343.521 307.257 349.169 312.872C356.147 319.812 363.19 326.752 369.5 334.28C372.584 337.968 373.742 343.027 373.523 348.171C373.305 353.118 372.431 357.714 370.083 362.231C363.653 374.602 349.44 378 338.28 374.939C330.68 372.858 325.742 367.419 320.585 362.132C317.522 358.991 314.393 355.915 311.318 352.796C307.11 348.538 302.934 344.236 298.704 339.989C288.87 330.138 278.981 320.33 269.158 310.468C261.701 302.981 254.43 295.308 246.852 287.963C241.487 282.752 239.101 274.567 243.214 267.651C241.176 265.31 239.313 262.935 237.209 260.801C234.527 258.075 231.593 255.601 228.867 252.908C227.417 251.474 225.9 250.706 223.814 250.199C220.68 249.438 218.241 250.482 215.91 251.94C206.654 257.73 197.277 263.356 186.987 266.992C178.261 270.075 169.284 272.731 160.211 274.48C150.089 276.435 139.741 276.619 129.373 275.81C120.994 275.147 112.647 274.506 104.534 272.173C91.1679 268.332 78.1537 263.617 66.4793 255.837C61.1549 252.298 55.4253 249.205 50.6923 245.011C44.1818 239.241 38.0988 232.893 32.4205 226.295C25.3255 218.022 19.0733 209.074 14.3311 199.19C9.01239 188.115 5.58536 176.421 3.3282 164.402C1.35184 153.88 0.206163 143.239 0.612309 132.493C1.0653 120.327 3.06928 108.426 6.47142 96.7367C8.87163 88.496 12.1451 80.6285 16.2919 73.1562C23.5323 60.0987 31.8421 47.7207 42.8895 37.5549C48.7253 32.1833 55.139 27.3591 61.6722 22.8409C67.7239 18.6603 74.0916 14.8298 80.6876 11.5897C85.8615 9.05627 91.5035 7.32122 97.1121 5.87006C104.372 3.9966 111.751 2.3746 119.183 1.36434C125.588 0.493805 132.122 0.60652 138.602 0.369616C148.327 -0.00211155 157.73 2.20301 167.145 4.15696C186.848 8.24153 204.838 16.0794 220.993 28.2602C231.923 36.4976 241.551 45.9881 249.394 57.0802C261.506 74.2215 269.933 93.1459 273.121 113.992C274.424 122.481 274.46 131.186 274.703 139.793C275.25 159.148 270.031 177.408 263.064 195.152C260.614 201.405 256.58 207.043 253.224 212.933C251.425 216.085 249.517 219.172 247.652 222.292C247.115 223.197 246.545 224.08 245.656 225.52L245.646 225.498ZM269.017 131.829C268.436 127.699 267.601 119.965 266.23 112.327C264.136 100.68 260.555 89.4227 255.169 78.8821C247.532 63.946 237.311 50.8608 224.628 39.8673C219.382 35.3231 213.512 31.4766 207.85 27.4012C198.305 20.5321 187.562 16.2161 176.348 13.0021C167.754 10.5367 159.193 7.96207 150.135 7.76733C143.656 7.62197 137.177 7.23633 130.698 7.21111C126.196 7.20118 121.682 7.59533 117.18 7.85844C116.197 7.91088 115.202 8.06159 114.262 8.32164C110.839 9.25337 107.428 10.2179 104.039 11.2261C98.1891 12.9826 92.2743 14.5532 86.5441 16.6266C76.6147 20.2308 67.6102 25.6063 59.5205 32.36C52.7334 38.0244 45.4124 43.0324 39.7478 50.0754C31.8042 59.9312 23.7952 69.7214 19.0378 81.583C15.8076 89.6362 12.6864 97.788 10.3952 106.127C8.66592 112.393 7.96292 119.021 7.45685 125.529C6.97317 131.797 6.90451 138.153 7.41518 144.413C8.12808 153.108 9.19061 161.815 10.7779 170.392C13.0454 182.685 18.4403 193.902 24.7871 204.521C28.9784 211.532 34.1871 217.976 39.2538 224.42C47.4476 234.869 57.6895 243.137 68.9618 249.934C79.6666 256.39 90.9092 261.778 103.206 264.961C113.482 267.627 123.837 269.299 134.358 269.563C141.428 269.742 148.554 268.95 155.614 268.168C161.352 267.525 167.221 266.883 172.677 265.126C180.528 262.598 188.075 259.12 195.709 255.958C205.541 251.884 214.165 245.743 222.102 238.858C228.211 233.553 233.611 227.372 238.913 221.213C249.813 208.568 257.581 194.048 262.643 178.2C267.066 164.361 268.463 149.98 269.028 131.84L269.017 131.829ZM287.567 262.245C277.755 271.954 268.217 281.403 258.756 290.764C259.388 291.344 260.272 292.056 261.067 292.866C265.625 297.485 270.127 302.158 274.706 306.756C293.687 325.791 312.691 344.804 331.705 363.806C338.868 370.965 346.723 371.354 354.784 367.68C362.222 364.289 366.224 357.908 367.334 350.069C367.989 345.396 367.213 340.588 363.583 336.878C360.16 333.375 356.714 329.894 353.269 326.414C347.535 320.645 341.866 314.8 336.032 309.13C326.383 299.759 316.635 290.509 306.92 281.204C304.63 279.015 302.318 276.858 300.061 274.636C295.896 270.531 291.775 266.393 287.578 262.234L287.567 262.245ZM254.429 285.795C257.177 283.169 259.882 280.565 262.597 277.982C264.853 275.836 267.152 273.722 269.375 271.532C270.602 270.333 271.686 268.981 272.913 267.782C275.541 265.2 278.3 262.748 280.819 260.078C282.023 258.803 282.825 257.265 280.555 255.862C279.387 255.149 278.538 253.891 277.622 252.819C276.26 251.199 274.415 250.354 272.534 251.049C269.319 252.233 265.82 253.317 263.259 255.441C258.913 259.036 255.406 263.637 251.148 267.363C247.776 270.315 246.404 277.892 249.991 281.581C251.375 283.004 252.858 284.328 254.418 285.806L254.429 285.795ZM228.822 243.591C234.186 249.173 240.345 255.587 246.254 261.727C250.886 257.314 255.211 253.206 258.627 249.959C252.567 243.109 246.692 236.488 241.319 230.404C236.686 235.297 232.666 239.537 228.833 243.591L228.822 243.591Z" fill="black"/>
<path d="M255.081 138.472C254.976 146.87 254.017 155.18 251.891 163.29C250.579 168.289 248.656 173.2 246.472 177.935C243.837 183.663 240.918 189.315 237.606 194.714C231.454 204.748 223.218 213.227 213.979 220.743C208.922 224.86 203.56 228.791 197.849 232.033C186.635 238.398 174.583 243.068 161.674 245.387C156.241 246.369 150.721 247.067 145.203 247.404C131.324 248.258 117.757 246.546 104.38 242.825C91.6144 239.269 80.0117 233.674 69.4184 226.18C56.3268 216.922 45.7969 205.474 37.3033 192.24C32.8932 185.371 30.4623 177.786 27.3644 170.429C23.0926 160.295 22.5807 149.645 21.905 138.962C21.3137 129.601 22.7436 120.375 24.7086 111.325C26.6734 102.297 29.3266 93.3249 34.2833 85.2209C39.0317 77.455 43.8128 69.7328 50.1979 62.9972C61.172 51.4115 73.6497 41.7731 88.7643 35.439C91.6735 34.2222 94.735 33.3115 97.7312 32.2696C100.957 31.1518 104.14 29.8591 107.441 28.9926C111.41 27.9529 115.444 26.9461 119.521 26.5182C125.871 25.855 132.274 25.476 138.667 25.359C148.6 25.1734 158.453 26.473 167.931 29.137C176.733 31.603 185.621 34.2984 193.753 38.2264C205.508 43.888 215.576 52.0252 224.34 61.4264C228.602 65.9903 233.138 70.4783 236.492 75.6189C240.565 81.8643 243.565 88.7408 246.916 95.3887C248.124 97.7832 249.233 100.254 250.036 102.79C252.727 111.347 254.182 120.099 254.447 129.045C254.538 132.19 254.837 135.337 255.049 138.483L255.081 138.472ZM141.171 242.218C142.57 242.014 143.959 241.646 145.358 241.638C154.787 241.582 163.655 238.795 172.457 236.182C183.336 232.962 193.16 227.589 202.658 221.613C212.735 215.268 220.392 206.711 227.667 197.837C231.446 193.225 234.397 187.968 237.424 182.841C239.486 179.351 241.199 175.652 242.737 171.92C247.351 160.692 248.426 148.844 248.813 136.962C248.978 131.676 248.432 126.345 247.897 121.057C246.946 111.597 244.256 102.471 240.145 93.8884C234.054 81.1946 225.862 69.785 214.968 60.2044C206.243 52.5289 196.839 45.8021 185.922 41.2673C173.303 36.0297 160.012 33.0078 146.268 32.1692C140.587 31.8181 134.861 31.9802 129.157 32.1315C125.769 32.2114 122.37 32.5861 119.015 33.0484C105.975 34.8435 93.9899 39.1968 82.6774 45.6812C70.7851 52.503 59.7324 60.0912 51.448 70.8528C45.5307 78.5397 39.624 86.3467 36.2715 95.3389C33.2488 103.447 31.2851 111.94 29.2014 120.334C28.3746 123.664 28.3667 127.202 28.1843 130.653C28.0813 132.761 28.6338 134.914 28.4325 137.01C27.806 143.617 28.1412 150.203 29.6568 156.607C31.9951 166.507 35.4925 176.006 40.6846 185.039C47.5857 197.036 56.1398 207.616 67.0907 216.432C78.4125 225.555 91.1381 232.289 105.234 236.831C116.918 240.603 128.934 241.907 141.193 242.186L141.171 242.218Z" fill="black"/>
<path d="M238.449 139.527C238.351 149.018 237.533 158.409 235.721 167.579C234.605 173.235 232.953 178.79 231.095 184.138C228.841 190.609 226.357 196.993 223.536 203.103C218.298 214.45 211.273 224.035 203.409 232.537C199.094 237.202 194.528 241.637 189.668 245.307C180.113 252.505 169.852 257.791 158.865 260.431C154.241 261.535 149.54 262.344 144.841 262.727C133.027 263.695 121.471 261.78 110.084 257.572C99.2206 253.561 89.3458 247.248 80.3281 238.786C69.1841 228.331 60.2309 215.401 53.0086 200.444C49.256 192.681 47.188 184.114 44.5621 175.797C40.9378 164.343 40.5055 152.306 39.942 140.236C39.4518 129.652 40.6659 119.224 42.3493 108.994C44.0327 98.7964 46.295 88.6441 50.522 79.479C54.5624 70.6958 58.6464 61.9673 64.0829 54.3449C73.4322 41.2484 84.0661 30.339 96.9317 23.1699C99.4151 21.7883 102.018 20.7565 104.566 19.5825C107.312 18.3107 110.025 16.8532 112.835 15.8655C116.214 14.6825 119.648 13.5433 123.123 13.0594C128.534 12.3068 133.987 11.8711 139.429 11.7411C147.887 11.5304 156.275 12.9906 164.343 16.001C171.833 18.7917 179.398 21.8337 186.327 26.2615C196.333 32.6619 204.89 41.8443 212.351 52.4659C215.978 57.629 219.835 62.6943 222.685 68.5111C226.144 75.5633 228.695 83.3344 231.552 90.855C232.584 93.5549 233.529 96.353 234.2 99.216C236.484 108.887 237.719 118.785 237.937 128.888C238.016 132.449 238.271 135.999 238.438 139.56L238.449 139.527ZM141.412 256.865C142.604 256.638 143.785 256.215 144.976 256.207C153.007 256.137 160.553 252.986 168.056 250.032C177.318 246.383 185.68 240.307 193.781 233.542C202.363 226.364 208.886 216.68 215.081 206.656C218.305 201.443 220.821 195.496 223.39 189.702C225.147 185.752 226.61 181.572 227.919 177.348C231.848 164.655 232.774 151.267 233.109 137.833C233.254 131.859 232.797 125.83 232.34 119.865C231.533 109.182 229.251 98.8665 225.754 89.1602C220.584 74.8084 213.609 61.9161 204.334 51.1048C196.912 42.4383 188.909 34.8299 179.621 29.7198C168.883 23.8092 157.57 20.3985 145.859 19.4552C141.019 19.0623 136.145 19.259 131.293 19.4231C128.409 19.5259 125.523 19.9455 122.659 20.4634C111.553 22.5032 101.348 27.4283 91.7159 34.7684C81.5808 42.4896 72.1758 51.0644 65.1122 63.2376C60.0667 71.9312 55.0319 80.7559 52.1795 90.9288C49.6024 100.097 47.9204 109.694 46.1402 119.192C45.4326 122.959 45.4238 126.956 45.2731 130.855C45.1804 133.247 45.6558 135.672 45.4867 138.042C44.9458 145.511 45.2353 152.961 46.5196 160.194C48.5054 171.382 51.4756 182.125 55.8893 192.325C61.7489 205.881 69.0325 217.824 78.3528 227.794C87.9784 238.093 98.8227 245.696 110.809 250.834C120.754 255.094 130.978 256.558 141.412 256.865Z" fill="black"/>
<path d="M186.873 100.51C193.492 111.664 196.475 121.73 195.062 132.944C193.95 141.723 193.8 150.569 196.261 159.159C197.259 162.656 199 166.024 200.828 169.195C204.442 175.451 205.729 181.624 202.305 188.465C199.923 193.2 196.604 197.037 192.663 200.403C185.481 206.547 177.313 209.401 167.833 207.229C164.808 206.534 162.507 204.629 160.545 202.287C156.949 197.987 153.528 193.512 149.679 189.441C148.164 187.843 145.828 186.822 143.677 186.064C137.781 183.965 131.776 182.193 125.847 180.192C113.367 175.981 104.513 167.585 98.0476 156.299C94.4883 150.077 92.1319 143.387 91.5464 136.385C90.716 126.466 91.7539 116.65 97.0401 107.793C99.1896 104.193 101.252 100.517 103.685 97.1041C107.511 91.728 112.96 88.1795 118.551 84.9153C126.909 80.0298 136.081 77.9203 145.675 78.0834C149.849 78.1582 154.02 79.194 158.149 80.0114C164.909 81.3369 170.572 85.1502 175.775 89.2574C180.345 92.8608 184.039 97.5872 186.873 100.52L186.873 100.51ZM174.489 181.741C173.203 180.176 172.179 178.765 170.991 177.517C167.59 173.96 164.309 170.251 159.746 168.045C156.668 166.553 153.349 165.344 150.633 163.351C142.975 157.698 136.751 150.956 134.685 141.133C133.701 136.467 133.689 132 135.404 127.581C136.942 123.608 142.763 119.962 147.494 120.257C154.213 120.665 159.626 123.811 163.099 129.477C166.278 134.661 167.073 140.527 165.596 146.52C164.979 149.064 164.153 151.574 163.176 153.996C162.923 154.629 161.72 154.878 160.966 155.302C160.858 154.548 160.499 153.739 160.686 153.062C161.865 148.674 161.973 144.328 160.825 139.913C159.416 134.471 157.362 129.617 151.817 126.972C147.123 124.734 141.305 127.2 140.343 132.299C139.956 134.34 139.908 136.568 140.296 138.601C142.37 149.418 148.341 157.229 158.723 161.337C164.04 163.446 168.578 166.721 172.689 170.564C175.153 172.874 177.212 175.62 179.49 178.213C184.273 174.882 189.011 171.572 193.673 168.328C192.772 165.945 191.673 163.703 191.055 161.332C188.542 151.726 188.64 141.984 189.655 132.189C190.225 126.631 189.997 121.061 188.271 115.727C186.09 108.972 182.443 103.045 177.548 97.8568C171.999 91.9795 165.409 87.6508 157.689 85.5477C149.684 83.3675 141.545 82.9564 133.236 85.1334C126.107 86.9962 119.905 90.3027 114.355 94.8886C105.597 102.132 100.026 111.436 97.5211 122.517C96.2632 128.073 96.2616 133.774 97.3421 139.281C99.1143 148.252 103.435 156.082 109.506 162.954C114.389 168.491 120.105 172.687 127.268 174.8C132.936 176.472 138.647 178.09 144.182 180.134C150.558 182.486 155.608 186.756 159.573 192.171C164.443 188.774 169.291 185.388 174.489 181.763L174.489 181.741ZM196.776 173.435C185.515 181.296 174.397 189.048 163.278 196.799C166.904 202.64 172.365 203.657 178.292 201.562C185.749 198.924 192.031 194.536 196.242 187.567C198.995 183.018 200.611 178.489 196.983 173.643C196.94 173.588 196.885 173.533 196.776 173.424L196.776 173.435Z" fill="black"/>
<path d="M101.336 72.2407C99.5941 69.4845 97.8519 66.7284 96.0988 63.9722C95.2277 62.605 95.6117 61.9069 96.3331 61.7992C96.814 61.7239 97.8837 62.2395 98.2977 62.7975C101.751 67.5452 105.106 72.3582 108.482 77.1604C109.583 78.7246 109.406 79.7181 108.618 80.197C107.83 80.6758 106.827 79.7998 105.999 78.6293C104.474 76.4853 102.982 74.3195 101.479 72.1645C101.435 72.1863 101.391 72.219 101.336 72.2407Z" fill="black"/>
<path d="M141.249 58.6543C141.616 55.4114 141.984 52.1685 142.341 48.9255C142.519 47.3204 143.252 47.0162 143.885 47.378C144.3 47.6192 144.822 48.6907 144.787 49.3896C144.512 55.243 144.106 61.1071 143.743 66.9603C143.63 68.8604 142.863 69.5359 141.946 69.4137C141.028 69.2916 140.802 67.9805 140.881 66.5499C141.029 63.929 141.221 61.3082 141.401 58.6765C141.347 58.6764 141.303 58.6544 141.249 58.6434L141.249 58.6543Z" fill="black"/>
<path d="M181.907 73.2262C184.392 71.1129 186.877 68.9888 189.362 66.8755C190.599 65.8189 191.341 66.1045 191.547 66.793C191.688 67.252 191.336 68.387 190.832 68.8774C186.617 72.9636 182.325 76.9622 178.055 80.9937C176.664 82.3011 175.648 82.2771 175.071 81.5659C174.482 80.8547 175.206 79.7423 176.246 78.7508C178.151 76.9421 180.089 75.1553 182.005 73.3575C181.972 73.3137 181.94 73.2699 181.907 73.2262Z" fill="black"/>
<path d="M76.3884 97.9393C79.2696 99.4638 82.1618 100.988 85.043 102.513C86.4727 103.269 86.4928 104.067 85.9236 104.513C85.5515 104.807 84.3603 104.903 83.7272 104.618C78.3785 102.214 73.0629 99.7013 67.7471 97.2212C66.0225 96.4092 65.6641 95.4582 66.1138 94.651C66.5636 93.8438 67.8633 94.1088 69.1731 94.7124C71.5636 95.8098 73.9321 96.9509 76.3116 98.0702C76.3445 98.0266 76.3665 97.9829 76.3993 97.9393L76.3884 97.9393Z" fill="black"/>
<path d="M68.8263 142.844C71.9316 141.846 75.0478 140.848 78.1532 139.851C79.6949 139.352 80.2728 139.899 80.1947 140.62C80.15 141.1 79.3831 142.016 78.7269 142.265C73.2699 144.416 67.7584 146.446 62.2688 148.52C60.4863 149.193 59.5584 148.776 59.2872 147.891C59.0269 147.006 60.1212 146.265 61.4663 145.744C63.9269 144.799 66.3982 143.909 68.8587 142.986C68.8479 142.932 68.8371 142.888 68.8154 142.833L68.8263 142.844Z" fill="black"/>
<path d="M174.522 181.796C169.324 185.421 164.476 188.807 159.606 192.204C155.64 186.778 150.591 182.507 144.215 180.156C138.669 178.112 132.968 176.494 127.29 174.811C120.116 172.698 114.411 168.491 109.517 162.965C103.446 156.092 99.1144 148.252 97.3422 139.281C96.2507 133.774 96.2633 128.073 97.5103 122.516C100.015 111.425 105.575 102.121 114.344 94.8775C119.894 90.2917 126.085 86.996 133.225 85.1332C141.534 82.9562 149.662 83.3673 157.678 85.5585C165.398 87.6616 171.999 92.0012 177.548 97.8785C182.443 103.066 186.101 109.005 188.282 115.759C190.008 121.104 190.247 126.675 189.677 132.233C188.672 142.038 188.574 151.78 191.088 161.386C191.706 163.758 192.804 165.999 193.706 168.382C189.044 171.637 184.305 174.936 179.523 178.268C177.245 175.674 175.186 172.928 172.722 170.618C168.611 166.765 164.073 163.489 158.756 161.381C148.374 157.262 142.392 149.451 140.318 138.622C139.929 136.59 139.978 134.351 140.354 132.321C141.316 127.211 147.134 124.745 151.839 126.994C157.384 129.639 159.427 134.503 160.847 139.946C161.995 144.36 161.887 148.718 160.708 153.095C160.532 153.772 160.88 154.581 160.987 155.335C161.753 154.91 162.945 154.662 163.198 154.029C164.175 151.606 165 149.096 165.618 146.553C167.084 140.56 166.289 134.682 163.11 129.498C159.637 123.833 154.213 120.687 147.494 120.279C142.763 119.995 136.942 123.641 135.404 127.602C133.689 132.033 133.701 136.489 134.685 141.166C136.751 150.989 142.986 157.742 150.644 163.394C153.36 165.399 156.679 166.608 159.768 168.1C164.331 170.305 167.612 174.026 171.013 177.583C172.212 178.831 173.225 180.242 174.522 181.806L174.522 181.796Z" fill="#FBBE41"/>
</g>
<defs>
<clipPath id="clip0_8_7">
<rect width="373.506" height="375.231" fill="white" transform="translate(0.828125) rotate(0.126429)"/>
</clipPath>
</defs>
</svg>
